HIERARCHY
ROOT hip
{
  OFFSET 0 0 0
  CHANNELS 6 Xposition Yposition Zposition Zrotation Yrotation Xrotation
  JOINT abdomen
  {
    OFFSET 0 20.6881 -0.73152
    CHANNELS 3 Zrotation Xrotation Yrotation
    JOINT chest
    {
      OFFSET 0 11.7043 -0.48768
      CHANNELS 3 Zrotation Xrotation Yrotation
      JOINT neck
      {
        OFFSET 0 22.1894 -2.19456
        CHANNELS 3 Zrotation Xrotation Yrotation
        JOINT head
        {
          OFFSET -0.24384 7.07133 1.2192
          CHANNELS 3 Zrotation Xrotation Yrotation
          JOINT leftEye
          {
            OFFSET 4.14528 8.04674 8.04672
            CHANNELS 3 Zrotation Xrotation Yrotation
            End Site
            {
              OFFSET 1 0 0
            }
          }
          JOINT rightEye
          {
            OFFSET -3.6576 8.04674 8.04672
            CHANNELS 3 Zrotation Xrotation Yrotation
            End Site
            {
              OFFSET 1 0 0
            }
          }
        }
      }
      JOINT rCollar
      {
        OFFSET -2.68224 19.2634 -4.8768
        CHANNELS 3 Zrotation Xrotation Yrotation
        JOINT rShldr
        {
          OFFSET -8.77824 -1.95073 1.46304
          CHANNELS 3 Zrotation Xrotation Yrotation
          JOINT rForeArm
          {
            OFFSET -28.1742 -1.7115 0.48768
            CHANNELS 3 Zrotation Xrotation Yrotation
            JOINT rHand
            {
              OFFSET -22.5879 0.773209 7.07136
              CHANNELS 3 Zrotation Xrotation Yrotation
              JOINT rThumb1
              {
                OFFSET -1.2192 -0.487915 3.41376
                CHANNELS 3 Zrotation Xrotation Yrotation
                JOINT rThumb2
                {
                  OFFSET -3.37035 -0.52449 3.41376
                  CHANNELS 3 Zrotation Xrotation Yrotation
                  End Site
                  {
                    OFFSET -1.78271 -1.18214 1.43049
                  }
                }
              }
              JOINT rIndex1
              {
                OFFSET -7.75947 0.938293 5.60832
                CHANNELS 3 Zrotation Xrotation Yrotation
                JOINT rIndex2
                {
                  OFFSET -2.54057 -0.884171 1.56538
                  CHANNELS 3 Zrotation Xrotation Yrotation
                  End Site
                  {
                    OFFSET -1.62519 -0.234802 1.16502
                  }
                }
              }
              JOINT rMid1
              {
                OFFSET -8.24714 1.18213 3.41376
                CHANNELS 3 Zrotation Xrotation Yrotation
                JOINT rMid2
                {
                  OFFSET -3.10165 -0.590103 1.0647
                  CHANNELS 3 Zrotation Xrotation Yrotation
                  End Site
                  {
                    OFFSET -2.48547 -0.328903 0.83742
                  }
                }
              }
              JOINT rRing1
              {
                OFFSET -8.82822 0.546677 1.51678
                CHANNELS 3 Zrotation Xrotation Yrotation
                JOINT rRing2
                {
                  OFFSET -2.60934 -0.819778 -0.0198488
                  CHANNELS 3 Zrotation Xrotation Yrotation
                  End Site
                  {
                    OFFSET -2.33842 -0.294052 0.168128
                  }
                }
              }
              JOINT rPinky1
              {
                OFFSET -8.27202 -0.0477905 -0.4584
                CHANNELS 3 Zrotation Xrotation Yrotation
                JOINT rPinky2
                {
                  OFFSET -1.82734 -0.647385 -0.700984
                  CHANNELS 3 Zrotation Xrotation Yrotation
                  End Site
                  {
                    OFFSET -1.69225 -0.51767 -0.607171
                  }
                }
              }
            }
          }
        }
      }
      JOINT lCollar
      {
        OFFSET 2.68224 19.2634 -4.8768
        CHANNELS 3 Zrotation Xrotation Yrotation
        JOINT lShldr
        {
          OFFSET 8.77824 -1.95073 1.46304
          CHANNELS 3 Zrotation Xrotation Yrotation
          JOINT lForeArm
          {
            OFFSET 28.1742 -1.7115 0.48768
            CHANNELS 3 Zrotation Xrotation Yrotation
            JOINT lHand
            {
              OFFSET 22.5879 0.773209 7.07136
              CHANNELS 3 Zrotation Xrotation Yrotation
              JOINT lThumb1
              {
                OFFSET 1.2192 -0.487915 3.41376
                CHANNELS 3 Zrotation Xrotation Yrotation
                JOINT lThumb2
                {
                  OFFSET 3.37035 -0.52449 3.41376
                  CHANNELS 3 Zrotation Xrotation Yrotation
                  End Site
                  {
                    OFFSET 1.78271 -1.18214 1.43049
                  }
                }
              }
              JOINT lIndex1
              {
                OFFSET 7.75947 0.938293 5.60832
                CHANNELS 3 Zrotation Xrotation Yrotation
                JOINT lIndex2
                {
                  OFFSET 2.54057 -0.884171 1.56538
                  CHANNELS 3 Zrotation Xrotation Yrotation
                  End Site
                  {
                    OFFSET 1.62519 -0.234802 1.16502
                  }
                }
              }
              JOINT lMid1
              {
                OFFSET 8.24714 1.18213 3.41376
                CHANNELS 3 Zrotation Xrotation Yrotation
                JOINT lMid2
                {
                  OFFSET 3.10165 -0.590103 1.0647
                  CHANNELS 3 Zrotation Xrotation Yrotation
                  End Site
                  {
                    OFFSET 2.48547 -0.328903 0.83742
                  }
                }
              }
              JOINT lRing1
              {
                OFFSET 8.82822 0.546677 1.51678
                CHANNELS 3 Zrotation Xrotation Yrotation
                JOINT lRing2
                {
                  OFFSET 2.60934 -0.819778 -0.0198488
                  CHANNELS 3 Zrotation Xrotation Yrotation
                  End Site
                  {
                    OFFSET 2.33842 -0.294052 0.168128
                  }
                }
              }
              JOINT lPinky1
              {
                OFFSET 8.27202 -0.0477905 -0.4584
                CHANNELS 3 Zrotation Xrotation Yrotation
                JOINT lPinky2
                {
                  OFFSET 1.82734 -0.647385 -0.700984
                  CHANNELS 3 Zrotation Xrotation Yrotation
                  End Site
                  {
                    OFFSET 1.69225 -0.51767 -0.607171
                  }
                }
              }
            }
          }
        }
      }
    }
  }
  JOINT rButtock
  {
    OFFSET -8.77824 4.35084 1.2192
    CHANNELS 3 Zrotation Xrotation Yrotation
    JOINT rThigh
    {
      OFFSET 0 -1.70687 -2.19456
      CHANNELS 3 Zrotation Xrotation Yrotation
      JOINT rShin
      {
        OFFSET 0 -36.8199 0.73152
        CHANNELS 3 Zrotation Xrotation Yrotation
        JOINT rFoot
        {
          OFFSET 0.73152 -45.1104 -5.12064
          CHANNELS 3 Zrotation Xrotation Yrotation
          End Site
          {
            OFFSET -1.1221 -3.69964 12.103
          }
        }
      }
    }
  }
  JOINT lButtock
  {
    OFFSET 8.77824 4.35084 1.2192
    CHANNELS 3 Zrotation Xrotation Yrotation
    JOINT lThigh
    {
      OFFSET 0 -1.70687 -2.19456
      CHANNELS 3 Zrotation Xrotation Yrotation
      JOINT lShin
      {
        OFFSET 0 -36.8199 0.73152
        CHANNELS 3 Zrotation Xrotation Yrotation
        JOINT lFoot
        {
          OFFSET -0.73152 -45.1104 -5.12064
          CHANNELS 3 Zrotation Xrotation Yrotation
          End Site
          {
            OFFSET 1.1221 -3.69964 12.103
          }
        }
      }
    }
  }
}
MOTION
Frames:	4
Frame Time:	0.00833333
273.491 83.4871 84.7766 0.0 0.0 0.0 -2.59964 0.00036599 -0.0702748 -0.716704 0.01229 -0.12403 1.68525e-14 7.95139e-16 1.98785e-16 4.98608e-14 3.18055e-15 5.96354e-16 -0.0 0.0 0.0 -0.0 0.0 0.0 8.64593e-15 -2.85365e-17 2.48481e-16 1.76555e-13 -5.90142e-16 3.57812e-15 2.98858e-12 -9.20771e-13 1.59028e-14 3.43212e-11 7.98419e-13 4.58e-13 8.09311e-11 -2.65921e-13 1.02414e-12 1.39757e-10 -4.6118e-13 1.76123e-12 8.09384e-11 -2.60805e-13 1.0146e-12 7.73091 5.47488 0.417314 8.09312e-11 -2.6498e-13 1.02096e-12 2.90554 0.965183 0.102902 8.09473e-11 -2.65278e-13 1.02493e-12 10.2786 0.731801 0.0259123 8.09268e-11 -2.65179e-13 1.02732e-12 2.22167 -0.733487 -0.20892 8.54951e-15 -2.73717e-17 -4.96962e-17 1.72615e-13 -5.77718e-16 2.18663e-15 3.00801e-12 8.75845e-13 1.27222e-14 3.43053e-11 -1.00093e-12 4.64361e-13 8.09436e-11 -2.7119e-13 1.02096e-12 1.39797e-10 -4.67542e-13 1.76998e-12 8.09396e-11 -2.71937e-13 1.02414e-12 -7.73091 5.47488 -0.417314 8.09439e-11 -2.70844e-13 1.02096e-12 -2.90554 0.965183 -0.102902 8.09309e-11 -2.70844e-13 1.02096e-12 -10.2786 0.731801 -0.0259123 8.09451e-11 -2.70347e-13 1.01142e-12 -2.22167 -0.733487 0.20892 -2.03217e-16 0.0 -3.88251e-19 -1.50085 -1.93106 0.00776876 -0.00872166 -2.07863 -0.0717154 -0.472662 3.99921 0.134511 2.03217e-16 0.0 3.88251e-19 -2.45046 -8.43846 0.261212 -0.00685669 9.70808 -0.175595 0.523243 -1.28001 -0.0328368
268.061 82.617 72.9302 -177.761 -47.9926 174.788 -2.39577 1.15831 -0.824027 -0.624213 1.12578 -0.396176 -0.450344 3.14683 -0.734027 3.15353 -5.60896 -0.981175 -0.0 0.0 0.0 -0.0 0.0 0.0 -4.03959e-14 1.29279e-14 2.84349e-13 21.8981 6.10319 0.600781 -4.50432 -2.10656 6.96913 -4.51445e-07 0.00781229 0.00109795 -4.26e-10 -1.48593e-09 7.65897e-10 -7.35705e-10 -2.57355e-09 1.32557e-09 -4.25993e-10 -1.48593e-09 7.65889e-10 7.73091 5.47488 0.417314 -4.26e-10 -1.48593e-09 7.65894e-10 2.90554 0.965183 0.102902 -4.25987e-10 -1.48593e-09 7.65899e-10 10.2786 0.731801 0.0259123 -4.26005e-10 -1.48593e-09 7.65901e-10 2.22167 -0.733487 -0.20892 -4.05121e-14 1.2929e-14 2.8405e-13 -22.4582 2.55912 -0.75442 3.45392 -1.44282 -5.52423 -0.0727991 -5.99116 0.825467 -6.28289e-11 4.75101e-10 4.75066e-10 -1.20501e-10 8.2352e-10 8.21794e-10 -6.28341e-11 4.751e-10 4.75071e-10 -7.73091 5.47488 -0.417314 -6.28298e-11 4.751e-10 4.75065e-10 -2.90554 0.965183 -0.102902 -6.28403e-11 4.751e-10 4.75066e-10 -10.2786 0.731801 -0.0259123 -6.28277e-11 4.75101e-10 4.75057e-10 -2.22167 -0.733487 0.20892 -2.03217e-16 0.0 -3.88251e-19 -1.45337 -4.12126 0.69657 0.0276527 7.86155 0.117349 -0.766618 -2.58763 -2.11237 2.03217e-16 0.0 3.88251e-19 -2.12929 -7.4165 1.65056 -0.0241145 15.4222 -0.2756 1.27183 -7.37736 4.49882
268.074 82.6186 72.9209 -177.715 -47.9018 174.769 -2.14798 2.38326 -1.62049 -0.51561 2.30086 -0.683835 -0.839288 6.47249 -1.51781 6.27906 -11.533 -2.05028 -0.0 0.0 0.0 -0.0 0.0 0.0 -9.62577e-14 3.28608e-14 5.99361e-13 44.9067 12.5493 1.26027 -8.7115 -4.22832 14.3639 -1.65882e-06 0.0180105 0.00253121 -9.77063e-10 -3.16046e-09 1.61967e-09 -1.68742e-09 -5.47368e-09 2.80325e-09 -9.77057e-10 -3.16046e-09 1.61967e-09 7.73091 5.47488 0.417314 -9.77064e-10 -3.16046e-09 1.61967e-09 2.90554 0.965183 0.102902 -9.77055e-10 -3.16047e-09 1.61968e-09 10.2786 0.731801 0.0259123 -9.7707e-10 -3.16046e-09 1.61968e-09 2.22167 -0.733487 -0.20892 -9.63959e-14 3.2862e-14 5.99059e-13 -46.1258 5.26461 -1.55478 6.80457 -2.92361 -11.3759 0.0419805 -12.3238 1.72911 -1.99293e-10 1.00857e-09 1.01301e-09 -3.69741e-10 1.74822e-09 1.75269e-09 -1.993e-10 1.00857e-09 1.01301e-09 -7.73091 5.47488 -0.417314 -1.99295e-10 1.00857e-09 1.013e-09 -2.90554 0.965183 -0.102902 -1.99303e-10 1.00857e-09 1.01301e-09 -10.2786 0.731801 -0.0259123 -1.99292e-10 1.00857e-09 1.013e-09 -2.22167 -0.733487 0.20892 -2.03217e-16 0.0 -3.88251e-19 -1.34619 -6.43469 1.43045 -0.0081641 18.3704 0.331852 -1.64586 -9.52583 -4.54954 2.03217e-16 0.0 3.88251e-19 -1.84631 -6.3327 3.10758 -0.0188707 21.464 -0.390719 3.13488 -13.6957 9.47765
268.083 82.6166 72.9116 -177.727 -47.8065 174.784 -1.8965 3.47169 -2.33532 -0.407447 3.35239 -0.94185 -1.10639 9.43426 -2.22892 8.86269 -16.8067 -3.06026 -0.0 0.0 0.0 -0.0 0.0 0.0 -1.3848e-13 3.88408e-14 8.5255e-13 65.2929 18.3013 1.88764 -12.0066 -5.94649 21.0116 -2.25263e-06 0.0234369 0.00329384 -1.43986e-09 -4.45724e-09 2.29564e-09 -2.48663e-09 -7.71973e-09 3.97319e-09 -1.43985e-09 -4.45725e-09 2.29564e-09 7.73091 5.47488 0.417314 -1.43986e-09 -4.45725e-09 2.29564e-09 2.90554 0.965183 0.102902 -1.43986e-09 -4.45726e-09 2.29565e-09 10.2786 0.731801 0.0259123 -1.43987e-09 -4.45725e-09 2.29565e-09 2.22167 -0.733487 -0.20892 -1.38635e-13 3.88418e-14 8.52249e-13 -67.1711 7.67201 -2.28144 9.53816 -4.16778 -16.6126 0.321877 -17.9581 2.58909 -3.50374e-10 1.42585e-09 1.42316e-09 -6.41097e-10 2.47149e-09 2.46184e-09 -3.50381e-10 1.42584e-09 1.42317e-09 -7.73091 5.47488 -0.417314 -3.50377e-10 1.42584e-09 1.42315e-09 -2.90554 0.965183 -0.102902 -3.50383e-10 1.42584e-09 1.42316e-09 -10.2786 0.731801 -0.0259123 -3.50373e-10 1.42584e-09 1.42315e-09 -2.22167 -0.733487 0.20892 -2.03217e-16 0.0 -3.88251e-19 -1.19886 -8.49699 2.09175 -0.115448 27.7409 0.555978 -2.94547 -15.6595 -6.8546 2.03217e-16 0.0 3.88251e-19 -1.63616 -5.36567 4.41285 0.0089672 26.85 -0.50535 5.77607 -19.0799 14.2481
